<svg width="20" height="16" viewBox="0 0 20 16" fill="none" xmlns="http://www.w3.org/2000/svg">
<path d="M18.125 0.782715H1.875C0.820312 0.782715 0 1.64209 0 2.65771V13.9077C0 14.9624 0.820312 15.7827 1.875 15.7827H18.125C19.1406 15.7827 20 14.9624 20 13.9077V2.65771C20 1.64209 19.1406 0.782715 18.125 0.782715ZM18.125 2.65771V4.25928C17.2266 5.00146 15.8203 6.09521 12.8516 8.43896C12.1875 8.94678 10.8984 10.1968 10 10.1577C9.0625 10.1968 7.77344 8.94678 7.10938 8.43896C4.14062 6.09521 2.73438 5.00146 1.875 4.25928V2.65771H18.125ZM1.875 13.9077V6.68115C2.73438 7.38428 4.02344 8.3999 5.9375 9.92334C6.79688 10.5874 8.32031 12.0718 10 12.0327C11.6406 12.0718 13.125 10.5874 14.0234 9.92334C15.9375 8.3999 17.2266 7.38428 18.125 6.68115V13.9077H1.875Z" fill="#333333"/>
</svg>
