<svg width="20" height="19" viewBox="0 0 20 19" fill="none" xmlns="http://www.w3.org/2000/svg">
<path d="M17.5 3.875V3.25C17.5 1.88281 16.3672 0.75 15 0.75H3.75C1.64062 0.75 0 2.42969 0 4.5V14.5C0 16.6094 1.64062 18.25 3.75 18.25H17.5C18.8672 18.25 20 17.1562 20 15.75V6.375C20 5.00781 18.8672 3.875 17.5 3.875ZM18.125 15.75C18.125 16.1016 17.8125 16.375 17.5 16.375H3.75C2.69531 16.375 1.875 15.5547 1.875 14.5V4.5C1.875 3.48438 2.69531 2.625 3.75 2.625H15C15.3125 2.625 15.625 2.9375 15.625 3.25V4.5H4.375C4.02344 4.5 3.75 4.8125 3.75 5.125C3.75 5.47656 4.02344 5.75 4.375 5.75H17.5C17.8125 5.75 18.125 6.0625 18.125 6.375V15.75ZM15 9.5C14.2969 9.5 13.75 10.0859 13.75 10.75C13.75 11.4531 14.2969 12 15 12C15.6641 12 16.25 11.4531 16.25 10.75C16.25 10.0859 15.6641 9.5 15 9.5Z" fill="#333333"/>
</svg>
