<svg xmlns="http://www.w3.org/2000/svg" viewBox="0 0 390 140"><g fill="#fff"><path d="m77 26 6 32-20-26-6-32ZM63 114l-6-32 20 26 6 32ZM54 28l22 25-31-12-22-25ZM86 111.995l-22-25 31 12 22 25ZM35 42l31 10-32 5L3 47ZM105 98 74 88l32-5 31 10ZM26 63.002l32-6-26 20-32 6ZM114 77.002l-32 6 26-20 32-6ZM28 86l25-22-12 31-25 22ZM112 54 87 76l12-31 25-22ZM42 105l10-31 5 32-10 31ZM98 35 88 66l-5-32L93 3ZM187.37 30.946c0-11.914-2.53-16.054-15.042-16.054h-9.062V47h9.062c12.512 0 15.042-4.186 15.042-16.054Zm-5.8.046c0 4.508-.184 6.532-.966 7.912-1.054 1.796-3.124 2.396-6.988 2.396h-4.554V20.6h4.554c3.818 0 5.888.552 6.946 2.3.828 1.376 1.012 3.676 1.012 8.092Zm15.5-16.1h-5.8V47h5.8Zm19.74 15.594 10.304-15.594h-6.854L213.5 25.61l-6.718-10.718h-6.946l10.35 15.594L199.284 47h6.854l7.362-11.638L220.812 47h6.9Zm36.8.46c0-8.556-3.634-16.422-13.294-16.422s-13.294 7.912-13.294 16.422 3.634 16.422 13.294 16.422 13.294-7.912 13.294-16.422Zm-5.842 0c0 5.014-1.15 10.718-7.452 10.718s-7.5-5.7-7.5-10.718 1.2-10.718 7.5-10.718c6.348 0 7.452 5.704 7.452 10.718ZM280.2 14.892h-5.75v20.1l-12.744-20.1h-4.784V47h5.8V26.9L275.46 47h4.74Zm27.966 22.448c0-11.822-17.894-8.188-17.894-13.8 0-2.714 3.036-3.634 5.106-3.634 3.358 0 5.29 1.2 6.808 4.048l5.014-2.3c-2.484-5.014-6.118-7.13-11.822-7.13-5.428 0-10.9 2.944-10.9 9.016 0 11.546 17.894 7.176 17.894 13.8 0 3.22-3.358 4.6-6.072 4.6-3.634 0-6.44-1.426-7.406-5.014l-5.474 1.058c1.61 6.44 6.118 9.476 12.88 9.476 5.978 0 11.866-3.588 11.866-10.12ZM177.618 53.892h-5.2L160.092 86h6.256l3.036-8.372H180.7L183.782 86h6.256Zm-6.348 18.676 3.772-10.35 3.818 10.35Zm38.824 4.14c-1.932 2.392-3.864 4-7.084 4-6.072 0-7.866-5.8-7.866-10.764s1.794-10.764 7.866-10.764c3.128 0 4.968 1.518 6.9 3.726l4.094-4c-3.082-3.726-6.072-5.428-10.994-5.428-9.568 0-13.754 7.82-13.754 16.468 0 8.6 4.232 16.468 13.754 16.468 5.428 0 7.774-1.748 11.178-5.8Zm21.114-22.816h-5.2L213.682 86h6.256l3.036-8.372h11.316L237.372 86h6.256Zm-6.348 18.676 3.772-10.35 3.818 10.35Zm44.39-2.622c0-11.914-2.53-16.054-15.042-16.054h-9.062V86h9.062c12.512 0 15.042-4.186 15.042-16.054Zm-5.8.046c0 4.508-.184 6.532-.966 7.912C261.43 79.7 259.36 80.3 255.5 80.3h-4.558V59.6h4.558c3.818 0 5.888.552 6.946 2.3.824 1.376 1.008 3.676 1.008 8.092Zm31.28 10.3h-15.912V72.2h13.892v-5.428h-13.892V59.6h15.916v-5.7h-21.712V86h21.712Zm32.43-26.4h-5.47l-9.108 22.862-8.97-22.862h-5.566V86h5.842V68.8L310.7 86h3.772l6.854-17.25V86h5.842Zm10.212 0h-5.8V86h5.8Zm26.542 26.4H348V72.2h13.892v-5.428H348V59.6h15.916v-5.7h-21.71V86h21.712ZM390 76.34c0-11.822-17.894-8.188-17.894-13.8 0-2.714 3.036-3.634 5.106-3.634 3.358 0 5.29 1.2 6.808 4.048l5.014-2.3c-2.484-5.014-6.118-7.13-11.822-7.13-5.428 0-10.9 2.944-10.9 9.016 0 11.546 17.894 7.176 17.894 13.8 0 3.22-3.358 4.6-6.072 4.6-3.634 0-6.44-1.426-7.406-5.014l-5.474 1.058c1.61 6.44 6.118 9.476 12.88 9.476 5.978 0 11.866-3.588 11.866-10.12ZM183.644 92.892H160.92v1.242h10.718V125h1.288V94.134h10.718Zm23.276 8.418c0-6.026-4.094-8.418-9.982-8.418h-10.764V125h1.288v-15.318h6.486c2.484 0 3.91 1.978 4.876 3.588L205.77 125h1.518l-6.988-11.776a9.9 9.9 0 0 0-3.036-3.542c6.482-.414 9.656-3.174 9.656-8.372Zm-1.288 0c0 5.52-3.91 7.176-8.694 7.176h-9.476V94.18h9.476c4.738 0 8.694 1.52 8.694 7.13Zm27.554-8.418H231.9v18.354c0 6.532-1.656 12.88-10.074 12.88s-10.076-6.348-10.076-12.88V92.892h-1.288v18.354c0 7.866 2.53 14.168 11.362 14.168s11.362-5.98 11.362-14.168Zm25.76 23.508c0-12.328-20.7-6.256-20.7-16.1 0-5.014 4.876-6.44 8.648-6.44 4.186 0 7.5 1.2 9.522 5.014l1.15-.506c-2.162-4.186-5.842-5.8-10.672-5.8-5.06 0-9.936 2.346-9.936 7.728 0 11.224 20.7 4.922 20.7 16.1 0 5.428-5.2 7.82-9.752 7.82-4.6 0-9.568-1.426-10.81-6.716l-1.288.184c1.288 5.7 5.842 7.728 12.1 7.728 5.702.002 11.038-3.126 11.038-9.012Zm22.494-23.508h-22.724v1.242h10.718V125h1.288V94.134h10.718Z"/></g></svg>